<svg width="524" height="391" viewBox="0 0 524 391" fill="none" xmlns="http://www.w3.org/2000/svg">
<path d="M0.5 195.693C0.5 88.9095 88.0034 1.19336 194.523 1.19336C301.998 1.19336 389.5 88.9111 389.5 195.693C389.5 302.476 301.998 390.193 194.523 390.193C88.0018 390.193 0.5 303.431 0.5 195.693ZM65.2946 195.693C65.2946 267.65 124.628 328.105 194.523 328.105C266.328 328.105 323.752 268.603 323.752 195.693C323.752 122.781 265.372 63.2816 194.523 63.2816C124.628 63.2816 65.2946 123.737 65.2946 195.693Z" stroke="white"/>
<path d="M366.824 185.862L366.824 185.862C395.335 201.224 419.39 205.403 439.457 203.503C459.522 201.604 475.556 193.632 488.032 184.765C497.781 177.837 505.379 170.343 511.013 164.786C512.583 163.238 514 161.84 515.268 160.647C516.728 159.274 517.981 158.181 519.041 157.435C520.121 156.674 520.917 156.336 521.481 156.337C521.742 156.338 521.952 156.411 522.137 156.558C522.331 156.713 522.524 156.973 522.697 157.389C523.049 158.232 523.268 159.592 523.328 161.601L523.328 161.611L523.329 161.621C524.752 181.901 517.402 203.67 498.402 220.696C479.399 237.724 448.703 250.043 403.387 251.32C359.207 249.831 330.174 233.911 304.222 219.679C300.501 217.639 296.844 215.633 293.214 213.71C278.744 206.042 264.698 199.675 248.862 197.694C233.125 195.726 215.664 198.095 194.293 207.744C191.392 201.078 193.917 193.029 201.144 185.406C208.521 177.626 220.712 170.402 236.602 165.791C268.369 156.573 314.834 157.827 366.824 185.862Z" stroke="#F7B118"/>
</svg>
