<svg width="42" height="42" viewBox="0 0 42 42" fill="none" xmlns="http://www.w3.org/2000/svg">
<path d="M21.0256 3.48779C7.6889 3.48779 -0.943588 17.9636 5.98904 29.8905C12.7616 41.2686 29.2539 41.3287 36.0622 29.8905C37.7625 26.9653 38.5284 23.9112 38.5284 20.9907C38.5284 11.4242 30.7382 3.48779 21.0256 3.48779ZM35.3906 28.573L33.9146 27.7208C33.6199 27.5507 33.2432 27.6516 33.0732 27.9463C32.903 28.2409 33.004 28.6177 33.2987 28.7877L34.7721 29.6384C33.473 31.6923 31.7267 33.4361 29.6708 34.7325L28.8226 33.2636C28.6525 32.9689 28.2757 32.8682 27.9811 33.0381C27.6865 33.2082 27.5856 33.585 27.7557 33.8796L28.6044 35.3497C26.5109 36.4578 24.148 37.1218 21.6415 37.2156V35.5179C21.6415 35.1776 21.3657 34.9019 21.0255 34.9019C20.6853 34.9019 20.4094 35.1776 20.4094 35.5179V37.2156C17.9029 37.1218 15.54 36.4578 13.4465 35.3497L14.2952 33.8796C14.4653 33.5849 14.3644 33.2082 14.0697 33.0381C13.775 32.868 13.3984 32.9689 13.2282 33.2636L12.3801 34.7325C10.3243 33.4361 8.57803 31.6924 7.27882 29.6385L8.75227 28.7878C9.04692 28.6177 9.14782 28.2409 8.97769 27.9463C8.80756 27.6517 8.43079 27.5509 8.13621 27.7209L6.66022 28.5731C5.54821 26.4792 4.8808 24.1151 4.78441 21.6068H6.49797C6.83815 21.6068 7.11402 21.3311 7.11402 20.9907C7.11402 20.6505 6.83823 20.3747 6.49797 20.3747H4.78343C4.87489 17.8642 5.53836 15.4974 6.64726 13.4006L8.13654 14.2604C8.2335 14.3164 8.33949 14.343 8.44399 14.343C8.65687 14.343 8.864 14.2324 8.97802 14.0349C9.14815 13.7402 9.04717 13.3635 8.75251 13.1934L7.26397 12.3341C8.56179 10.2743 10.3086 8.52509 12.3664 7.22448L13.2284 8.71754C13.3425 8.91515 13.5495 9.02565 13.7624 9.02565C13.8669 9.02565 13.9728 8.99907 14.0699 8.94304C14.3645 8.77291 14.4654 8.39614 14.2953 8.10156L13.4321 6.60638C15.5292 5.49362 17.8972 4.82679 20.4095 4.7327V6.46332C20.4095 6.8035 20.6853 7.07937 21.0256 7.07937C21.3657 7.07937 21.6416 6.80358 21.6416 6.46332V4.7327C24.1539 4.82679 26.5219 5.49354 28.619 6.60638L27.7558 8.10156C27.5857 8.39622 27.6867 8.77291 27.9812 8.94304C28.0783 8.99907 28.1842 9.02565 28.2887 9.02565C28.5016 9.02565 28.7087 8.91507 28.8227 8.71754L29.6847 7.22448C31.7425 8.52501 33.4893 10.2743 34.7872 12.3341L33.2987 13.1934C33.004 13.3635 32.9031 13.7403 33.0732 14.0349C33.1873 14.2325 33.3943 14.343 33.6072 14.343C33.7117 14.343 33.8176 14.3164 33.9146 14.2604L35.4039 13.4006C36.5128 15.4974 37.1762 17.8642 37.2678 20.3747H35.5529C35.2127 20.3747 34.9368 20.6504 34.9368 20.9907C34.9368 21.331 35.2126 21.6068 35.5529 21.6068H37.2664C37.17 24.115 36.5026 26.4791 35.3906 28.573Z" fill="#F7B118"/>
<path d="M30.1996 20.5552L28.2769 18.6324C28.0363 18.3919 27.6462 18.3919 27.4057 18.6324C27.1651 18.8731 27.1651 19.2631 27.4057 19.5037L28.2854 20.3833H23.9618V19.6399C23.9618 18.7567 23.2433 18.0382 22.3602 18.0382H21.6416V10.6358L22.5213 11.5155C22.6415 11.6358 22.7992 11.6959 22.9568 11.6959C23.1145 11.6959 23.2722 11.6358 23.3924 11.5155C23.633 11.2749 23.633 10.8848 23.3924 10.6443L21.4696 8.72148C21.3541 8.6059 21.1974 8.54102 21.034 8.54102C20.8706 8.54102 20.7139 8.6059 20.5984 8.72148L18.6756 10.6443C18.435 10.8849 18.435 11.275 18.6756 11.5155C18.9162 11.7561 19.3063 11.7561 19.5468 11.5155L20.4095 10.6527V18.0383H19.691C18.8079 18.0383 18.0894 18.7568 18.0894 19.6399V22.309C18.0894 23.1921 18.8079 23.9106 19.691 23.9106H22.3601C23.2432 23.9106 23.9617 23.1921 23.9617 22.309V21.6154H28.2685L27.4058 22.4781C27.1652 22.7187 27.1652 23.1087 27.4058 23.3492C27.5261 23.4696 27.6837 23.5297 27.8414 23.5297C27.9991 23.5297 28.1567 23.4696 28.277 23.3493L30.1998 21.4266C30.3154 21.311 30.3803 21.1544 30.3803 20.9909C30.3801 20.8274 30.3152 20.6707 30.1996 20.5552ZM22.7296 22.3089C22.7296 22.5092 22.5603 22.6785 22.36 22.6785H19.6909C19.4906 22.6785 19.3213 22.5092 19.3213 22.3089V19.6399C19.3213 19.4395 19.4906 19.2702 19.6909 19.2702H22.36C22.5603 19.2702 22.7296 19.4395 22.7296 19.6399V22.3089Z" fill="#F7B118"/>
<path d="M41.9984 19.4939C41.2695 9.06917 32.9104 0.728799 22.5059 0.00142693C22.167 -0.0214598 21.8721 0.233658 21.8484 0.573021C21.8248 0.912385 22.0807 1.2068 22.42 1.2305C32.1973 1.91407 40.0858 9.80261 40.7694 19.5798C40.7921 19.9046 41.0626 20.1529 41.3833 20.1529C41.3977 20.1529 41.4123 20.1524 41.4269 20.1514C41.7662 20.1276 42.0222 19.8333 41.9984 19.4939Z" fill="#F7B118"/>
<path d="M41.4269 21.7976C41.088 21.7733 40.7931 22.0297 40.7694 22.3691C40.048 32.6864 31.3754 40.7683 21.0256 40.7683C10.1114 40.7683 1.23203 31.889 1.23203 20.9747C1.23203 10.6248 9.31392 1.95233 19.6312 1.23094C19.9705 1.20724 20.2265 0.912826 20.2028 0.573463C20.179 0.234099 19.8844 -0.0206082 19.5453 0.00186835C8.60098 0.767139 0 9.90994 0 20.9747C0 32.5683 9.43204 42.0003 21.0256 42.0003C32.087 42.0003 41.2329 33.4024 41.9985 22.4551C42.0222 22.1156 41.7663 21.8213 41.4269 21.7976Z" fill="#F7B118"/>
</svg>
