<svg width="32" height="48" viewBox="0 0 32 48" fill="none" xmlns="http://www.w3.org/2000/svg">
<path d="M31.3044 38.466C30.9203 38.466 30.6089 38.7774 30.6089 39.1615V45.6998C30.6089 45.9115 30.4367 46.0838 30.225 46.0838H26.4866V32.3887C26.4866 32.0046 26.1752 31.6933 25.7912 31.6933C25.4071 31.6933 25.0957 32.0046 25.0957 32.3887V46.0839H17.5679L19.7509 43.6823C19.9894 43.4199 20.1019 43.0462 20.0517 42.6821C20.0508 42.6751 20.0497 42.668 20.0485 42.661L17.9693 30.3781L18.5295 29.5348C18.8392 29.7548 19.0778 29.9666 19.5251 29.9666C19.9802 29.9666 20.4057 29.7118 20.6151 29.2925V29.2924L22.8081 24.8973L27.8037 26.832C27.9844 26.9095 30.6088 28.0914 30.6088 31.2121V35.916C30.6087 36.3 30.92 36.6115 31.3042 36.6115C31.6883 36.6115 31.9996 36.3001 31.9996 35.916V31.2121C31.9996 27.1004 28.479 25.6057 28.3291 25.5441C28.3248 25.5422 28.3203 25.5405 28.3159 25.5388L20.0015 22.3188V20.3688C21.3221 19.3418 22.2377 17.8194 22.4676 16.0825C23.126 16.0361 23.737 15.7902 24.2359 15.3612C24.8875 14.8008 25.2614 13.9853 25.2614 13.1241C25.2614 12.4094 25.0035 11.7269 24.5439 11.1952V8.619C24.5438 3.86651 20.6774 0 15.9249 0C11.1724 0 7.30603 3.86651 7.30603 8.619V11.2627C6.84157 11.7891 6.58899 12.437 6.58899 13.124C6.58899 13.9855 6.96267 14.8009 7.61443 15.3614C8.11301 15.7902 8.7236 16.0358 9.38185 16.0823C9.61357 17.8518 10.5559 19.4309 11.989 20.4718V22.3188L3.68357 25.5387C3.67921 25.5404 3.67485 25.5421 3.67049 25.5439C3.52056 25.6055 0 27.1002 0 31.2119V45.6996C0 46.6784 0.796224 47.4746 1.77493 47.4746H8.40073C8.7848 47.4746 9.09616 47.1632 9.09616 46.7791C9.09616 46.3951 8.7848 46.0837 8.40073 46.0837H6.90444V32.3887C6.90444 32.0046 6.59307 31.6933 6.20901 31.6933C5.82494 31.6933 5.51357 32.0046 5.51357 32.3887V46.0839H1.77502C1.56333 46.0839 1.39105 45.9116 1.39105 45.6999V31.212C1.39105 28.0808 4.03304 26.9016 4.19531 26.8323L9.18703 24.8971L11.3801 29.2924C11.59 29.7128 12.0161 29.9666 12.4702 29.9666C12.9154 29.9666 13.1516 29.758 13.4659 29.5348L14.026 30.3781L11.9471 42.6611C11.9459 42.668 11.9448 42.675 11.9438 42.682C11.8936 43.0459 12.006 43.4198 12.2446 43.6824L14.4276 46.084H11.6464C11.2623 46.084 10.9509 46.3954 10.9509 46.7794C10.9509 47.1635 11.2623 47.4749 11.6464 47.4749H30.2251C31.2038 47.4749 32 46.6785 32 45.6999V39.1616C31.9998 38.7774 31.6884 38.466 31.3044 38.466ZM21.5054 24.3929L19.4609 28.4904C19.4101 28.4543 18.3266 27.6845 17.0021 26.744C17.5768 26.0346 16.9045 26.8645 19.5275 23.6269L21.5054 24.3929ZM17.3947 28.7291L16.8645 29.5271H15.1303L14.6001 28.7291L15.9974 27.7366L17.3947 28.7291ZM13.3797 22.5432V21.2418C14.2247 21.5823 15.1276 21.7402 16.0094 21.7402C16.9212 21.7402 17.8153 21.5459 18.6105 21.1982V22.5489L15.9974 25.7743L13.3797 22.5432ZM23.8704 13.1241C23.8703 13.5797 23.673 14.0107 23.329 14.3066C23.1015 14.5023 22.8268 14.6274 22.5259 14.6763V11.5722C23.3252 11.702 23.8704 12.365 23.8704 13.1241ZM9.32436 14.6763C8.51599 14.5451 7.97986 13.8768 7.97986 13.124C7.97986 12.3806 8.59619 11.7754 9.32436 11.6071V14.6763ZM9.36173 10.19C9.14021 10.2154 8.88633 10.2754 8.69708 10.3398V8.619C8.69708 4.63343 11.9395 1.39096 15.925 1.39096C19.9106 1.39096 23.153 4.63343 23.153 8.619V10.292C22.9508 10.2306 22.7412 10.1899 22.526 10.1708C22.526 9.49979 22.5318 9.62924 20.3366 7.26912C19.9329 6.83536 19.2651 6.74449 18.7568 7.07653C16.3339 8.65925 13.3784 9.45436 10.6513 9.25852C10.0532 9.21374 9.50832 9.60772 9.36173 10.19ZM10.7153 15.2239V10.8851V10.6565C13.7173 10.8323 16.8646 9.94051 19.4072 8.31218C20.414 9.39316 20.9592 9.96017 21.135 10.1758C21.135 10.7214 21.135 14.5993 21.135 15.2238C21.135 18.0469 18.8331 20.3492 16.0095 20.3492C12.8389 20.3493 10.7153 17.8897 10.7153 15.2239ZM12.5341 28.4904L10.4896 24.3929L12.464 23.6282L14.9899 26.7461C13.7054 27.6582 12.6507 28.4076 12.5341 28.4904ZM13.332 42.811L15.3449 30.9179H16.6497L18.6626 42.811L15.9974 45.7432L13.332 42.811Z" fill="#F7B118"/>
</svg>
