<svg width="42" height="36" viewBox="0 0 42 36" fill="none" xmlns="http://www.w3.org/2000/svg">
<path d="M15.1509 13.7046C13.7672 13.7046 12.6414 14.8304 12.6414 16.2142C12.6414 17.598 13.7672 18.7238 15.1509 18.7238C16.5347 18.7238 17.6605 17.598 17.6605 16.2142C17.6605 14.8304 16.5347 13.7046 15.1509 13.7046ZM15.1509 17.4932C14.4456 17.4932 13.8719 16.9195 13.8719 16.2142C13.8719 15.5089 14.4456 14.9351 15.1509 14.9351C15.8562 14.9351 16.43 15.5089 16.43 16.2142C16.43 16.9194 15.8562 17.4932 15.1509 17.4932Z" fill="#F7B118"/>
<path d="M21.6937 13.7046C20.31 13.7046 19.1841 14.8304 19.1841 16.2142C19.1841 17.598 20.31 18.7238 21.6937 18.7238C23.0775 18.7238 24.2033 17.598 24.2033 16.2142C24.2033 14.8304 23.0775 13.7046 21.6937 13.7046ZM21.6937 17.4932C20.9884 17.4932 20.4146 16.9195 20.4146 16.2142C20.4146 15.5089 20.9884 14.9351 21.6937 14.9351C22.3991 14.9351 22.9728 15.5089 22.9728 16.2142C22.9728 16.9195 22.399 17.4932 21.6937 17.4932Z" fill="#F7B118"/>
<path d="M28.2364 13.7046C26.8526 13.7046 25.7268 14.8304 25.7268 16.2142C25.7268 17.598 26.8526 18.7238 28.2364 18.7238C29.6202 18.7238 30.746 17.598 30.746 16.2142C30.746 14.8304 29.6201 13.7046 28.2364 13.7046ZM28.2364 17.4932C27.5311 17.4932 26.9574 16.9195 26.9574 16.2142C26.9574 15.5089 27.5312 14.9351 28.2364 14.9351C28.9416 14.9351 29.5154 15.5089 29.5154 16.2142C29.5154 16.9195 28.9416 17.4932 28.2364 17.4932Z" fill="#F7B118"/>
<path d="M15.1509 19.8262C13.7672 19.8262 12.6414 20.952 12.6414 22.3358C12.6414 23.7195 13.7672 24.8453 15.1509 24.8453C16.5347 24.8453 17.6605 23.7195 17.6605 22.3358C17.6605 20.952 16.5347 19.8262 15.1509 19.8262ZM15.1509 23.6148C14.4456 23.6148 13.8719 23.0411 13.8719 22.3358C13.8719 21.6305 14.4456 21.0567 15.1509 21.0567C15.8562 21.0567 16.43 21.6305 16.43 22.3358C16.43 23.0411 15.8562 23.6148 15.1509 23.6148Z" fill="#F7B118"/>
<path d="M28.2364 19.8262C26.8526 19.8262 25.7268 20.952 25.7268 22.3358C25.7268 23.7195 26.8526 24.8453 28.2364 24.8453C29.6202 24.8453 30.746 23.7195 30.746 22.3358C30.7459 20.952 29.6201 19.8262 28.2364 19.8262ZM28.2364 23.6148C27.5311 23.6148 26.9574 23.0411 26.9574 22.3358C26.9574 21.6305 27.5312 21.0567 28.2364 21.0567C28.9416 21.0567 29.5154 21.6305 29.5154 22.3358C29.5153 23.0411 28.9416 23.6148 28.2364 23.6148Z" fill="#F7B118"/>
<path d="M21.6937 19.8262C20.31 19.8262 19.1841 20.952 19.1841 22.3358C19.1841 23.7195 20.31 24.8453 21.6937 24.8453C23.0775 24.8453 24.2033 23.7195 24.2033 22.3358C24.2033 20.952 23.0775 19.8262 21.6937 19.8262ZM21.6937 23.6148C20.9884 23.6148 20.4146 23.0411 20.4146 22.3358C20.4146 21.6305 20.9884 21.0567 21.6937 21.0567C22.3991 21.0567 22.9728 21.6305 22.9728 22.3358C22.9728 23.0411 22.399 23.6148 21.6937 23.6148Z" fill="#F7B118"/>
<path d="M21.6937 25.9478C20.3099 25.9478 19.1841 27.0736 19.1841 28.4574C19.1841 29.8412 20.3099 30.967 21.6937 30.967C23.0775 30.967 24.2032 29.8412 24.2032 28.4574C24.2032 27.0736 23.0775 25.9478 21.6937 25.9478ZM21.6937 29.7364C20.9883 29.7364 20.4146 29.1626 20.4146 28.4573C20.4146 27.7521 20.9884 27.1782 21.6937 27.1782C22.399 27.1782 22.9727 27.752 22.9727 28.4573C22.9727 29.1626 22.3989 29.7364 21.6937 29.7364Z" fill="#F7B118"/>
<path d="M15.1509 25.9478C13.7672 25.9478 12.6414 27.0736 12.6414 28.4574C12.6414 29.8412 13.7672 30.967 15.1509 30.967C16.5347 30.967 17.6605 29.8412 17.6605 28.4574C17.6605 27.0736 16.5347 25.9478 15.1509 25.9478ZM15.1509 29.7364C14.4456 29.7364 13.8719 29.1626 13.8719 28.4573C13.8719 27.752 14.4456 27.1782 15.1509 27.1782C15.8562 27.1782 16.43 27.752 16.43 28.4573C16.4299 29.1626 15.8562 29.7364 15.1509 29.7364Z" fill="#F7B118"/>
<path d="M9.47859 16.214L10.3831 15.3095C10.6233 15.0693 10.6233 14.6798 10.383 14.4394C10.1428 14.1993 9.75323 14.1992 9.51288 14.4395L8.60848 15.3439L7.70409 14.4395C7.46382 14.1993 7.07425 14.1992 6.83398 14.4394C6.59363 14.6798 6.59363 15.0693 6.8339 15.3095L7.73838 16.214L6.8339 17.1185C6.59347 17.3587 6.59347 17.7482 6.83382 17.9886C6.95391 18.1087 7.11141 18.1687 7.26883 18.1687C7.42625 18.1687 7.58375 18.1087 7.70392 17.9885L8.60832 17.0841L9.51271 17.9885C9.63289 18.1087 9.79031 18.1687 9.94781 18.1687C10.1052 18.1687 10.2627 18.1087 10.3828 17.9886C10.6232 17.7483 10.6232 17.3588 10.3829 17.1185L9.47859 16.214Z" fill="#F7B118"/>
<path d="M9.47859 22.3356L10.3831 21.4311C10.6233 21.1909 10.6233 20.8014 10.383 20.561C10.1428 20.3208 9.75323 20.3208 9.51288 20.5611L8.60848 21.4655L7.70409 20.5611C7.46382 20.3208 7.07425 20.3208 6.83398 20.561C6.59363 20.8014 6.59363 21.1909 6.8339 21.4311L7.73838 22.3356L6.8339 23.2401C6.59347 23.4803 6.59347 23.8698 6.83382 24.1102C6.95391 24.2303 7.11141 24.2903 7.26883 24.2903C7.42625 24.2903 7.58375 24.2303 7.70392 24.1101L8.60832 23.2057L9.51271 24.1101C9.63289 24.2303 9.79031 24.2903 9.94781 24.2903C10.1052 24.2903 10.2627 24.2303 10.3828 24.1102C10.6232 23.8698 10.6232 23.4803 10.3829 23.2401L9.47859 22.3356Z" fill="#F7B118"/>
<path d="M10.3829 29.3616L9.47846 28.4572L10.3829 27.5528C10.623 27.3125 10.623 26.923 10.3827 26.6826C10.1423 26.4424 9.75285 26.4424 9.5125 26.6826L8.60811 27.587L7.70371 26.6826C7.46336 26.4424 7.07387 26.4424 6.83352 26.6826C6.59325 26.9229 6.59325 27.3124 6.83352 27.5528L7.73792 28.4572L6.83352 29.3616C6.59325 29.6019 6.59325 29.9914 6.83352 30.2317C6.9537 30.3518 7.1112 30.4119 7.26862 30.4119C7.42603 30.4119 7.58353 30.3518 7.70371 30.2317L8.60811 29.3274L9.5125 30.2317C9.63268 30.3518 9.79018 30.4119 9.94759 30.4119C10.105 30.4119 10.2625 30.3518 10.3827 30.2317C10.6231 29.9913 10.6231 29.6018 10.3829 29.3616Z" fill="#F7B118"/>
<path d="M41.9647 31.192L40.2867 22.3617C40.2233 22.0279 39.9005 21.8088 39.5673 21.8722C39.2335 21.9356 39.0143 22.2576 39.0777 22.5916L40.7557 31.4218C40.8495 31.9161 40.4322 32.3826 39.8638 32.3826H30.7592L36.6646 26.4772C36.7727 26.3692 36.8448 26.2114 36.8448 26.0421V10.8405L38.5321 19.7202C38.5955 20.054 38.9179 20.2733 39.2514 20.2098C39.5852 20.1464 39.8044 19.8243 39.741 19.4904L36.8407 4.22789C36.799 3.31989 36.0494 2.59358 35.1314 2.59358H29.7395V0.615234C29.7395 0.275379 29.4641 0 29.1242 0C28.7844 0 28.509 0.275379 28.509 0.615234V2.5935H24.3886V0.615234C24.3886 0.275379 24.1132 0 23.7733 0C23.4335 0 23.1581 0.275379 23.1581 0.615234V2.5935H19.0376V0.615234C19.0376 0.275379 18.7622 0 18.4223 0C18.0825 0 17.8071 0.275379 17.8071 0.615234V2.5935H13.6867V0.615234C13.6867 0.275379 13.4113 0 13.0714 0C12.7316 0 12.4562 0.275379 12.4562 0.615234V2.5935H8.33577V0.615234C8.33577 0.275379 8.06039 0 7.72054 0C7.38068 0 7.1053 0.275379 7.1053 0.615234V2.5935H1.71339C0.768633 2.59358 0 3.36213 0 4.30697V33.5631C0 34.5078 0.768633 35.2764 1.71339 35.2764H16.9868C17.3266 35.2764 17.602 35.001 17.602 34.6612C17.602 34.3213 17.3266 34.0459 16.9868 34.0459H1.71339C1.4472 34.0459 1.23055 33.8294 1.23055 33.5632V10.582H35.6143V25.4267H28.7084C27.7636 25.4267 26.9951 26.1953 26.9951 27.14V34.0458H19.858C19.5181 34.0458 19.2427 34.3212 19.2427 34.6611C19.2427 35.0009 19.5181 35.2763 19.858 35.2763H27.6103C27.7691 35.2763 27.9282 35.2134 28.0454 35.0962L29.5286 33.613H39.8639C41.2002 33.613 42.2037 32.4497 41.9647 31.192ZM1.23055 9.3514V4.30697C1.23055 4.04078 1.4472 3.82413 1.71339 3.82413H7.1053V6.58777C7.1053 6.92762 7.38068 7.203 7.72054 7.203C8.06039 7.203 8.33577 6.92762 8.33577 6.58777V3.82413H12.4562V6.58777C12.4562 6.92762 12.7316 7.203 13.0714 7.203C13.4113 7.203 13.6867 6.92762 13.6867 6.58777V3.82413H17.8071V6.58777C17.8071 6.92762 18.0825 7.203 18.4223 7.203C18.7622 7.203 19.0376 6.92762 19.0376 6.58777V3.82413H23.1581V6.58777C23.1581 6.92762 23.4335 7.203 23.7733 7.203C24.1132 7.203 24.3886 6.92762 24.3886 6.58777V3.82413H28.509V6.58777C28.509 6.92762 28.7844 7.203 29.1242 7.203C29.4641 7.203 29.7395 6.92762 29.7395 6.58777V3.82413H35.1314C35.3976 3.82413 35.6142 4.04078 35.6142 4.30697V9.35148H1.23055V9.3514ZM28.2256 33.1757V27.1401C28.2256 26.8739 28.4421 26.6573 28.7083 26.6573H34.744C34.1284 27.273 28.8425 32.5588 28.2256 33.1757Z" fill="#F7B118"/>
</svg>
