<svg width="24" height="12" viewBox="0 0 24 12" fill="none" xmlns="http://www.w3.org/2000/svg">
<path d="M23.725 5.14889C23.7247 5.1486 23.7245 5.14828 23.7242 5.14799L18.8256 0.272997C18.4586 -0.0922061 17.865 -0.0908471 17.4997 0.276184C17.1344 0.643168 17.1359 1.23675 17.5028 1.602L20.7918 4.87499H0.9375C0.419719 4.87499 0 5.29471 0 5.81249C0 6.33028 0.419719 6.74999 0.9375 6.74999H20.7917L17.5029 10.023C17.1359 10.3882 17.1345 10.9818 17.4997 11.3488C17.865 11.7159 18.4587 11.7171 18.8256 11.352L23.7242 6.47699C23.7245 6.47671 23.7247 6.47638 23.7251 6.4761C24.0922 6.10963 24.0911 5.51413 23.725 5.14889Z" fill="#F7B118"/>
</svg>
