<?xml version="1.0" encoding="utf-8"?>
<!-- Generator: Adobe Illustrator 25.0.0, SVG Export Plug-In . SVG Version: 6.00 Build 0)  -->
<svg version="1.1" id="Слой_1" xmlns="http://www.w3.org/2000/svg" xmlns:xlink="http://www.w3.org/1999/xlink" x="0px" y="0px"
	 viewBox="0 0 90.9 65.6" style="enable-background:new 0 0 90.9 65.6;" xml:space="preserve">
<style type="text/css">
	.st0{fill:#F7B118;fill-opacity:0.8;}
	.st1{fill:#2B2B6B;}
</style>
<path class="st0" d="M90.9,65c0-7.9-1.6-15.8-4.6-23.2c-3-7.3-7.5-14-13.1-19.6c-5.6-5.6-12.3-10.1-19.6-13.1
	c-7.3-3-15.2-4.6-23.2-4.6V65H90.9z"/>
<path class="st1" d="M64,24.1v19.5c0,1.3-0.5,2.5-1.4,3.4c-0.9,0.9-2.2,1.4-3.5,1.4H59c-0.8,6.8-8.2,12.2-17.2,12.2v0
	c0,1.3-0.5,2.5-1.4,3.4c-0.9,0.9-2.2,1.4-3.5,1.4H32c-1.3,0-2.6-0.5-3.5-1.4c-0.9-0.9-1.4-2.2-1.4-3.4v-4.9c0-1.3,0.5-2.5,1.4-3.5
	c0.9-0.9,2.2-1.4,3.5-1.4h4.9c2.7,0,4.9,2.4,4.9,4.9c6.2,0,11.3-3.2,12.1-7.3c-1.3,0-2.5-0.6-3.4-1.5c-0.9-0.9-1.4-2.1-1.4-3.4V24.1
	c0-1.2,0.5-2.4,1.3-3.3c0.9-0.9,2-1.4,3.3-1.5C52,12.5,42.9,4.9,32,4.9c-10.9,0-20,7.6-21.8,14.4c1.2,0.1,2.4,0.6,3.3,1.5
	c0.9,0.9,1.3,2.1,1.3,3.3v19.5c0,1.3-0.5,2.5-1.4,3.4c-0.9,0.9-2.2,1.4-3.5,1.4H4.9c-1.3,0-2.6-0.5-3.5-1.4S0,44.9,0,43.6V24.1
	c0-1.3,0.5-2.5,1.4-3.4c0.9-0.9,2.2-1.4,3.5-1.4h0.2C6.9,9.8,18.2,0,32,0c13.8,0,25.1,9.8,26.8,19.2h0.2c1.3,0,2.6,0.5,3.5,1.4
	C63.5,21.6,64,22.8,64,24.1L64,24.1z"/>
</svg>
