<?xml version="1.0" encoding="utf-8"?>
<!-- Generator: Adobe Illustrator 25.0.0, SVG Export Plug-In . SVG Version: 6.00 Build 0)  -->
<svg version="1.1" id="Слой_1" xmlns="http://www.w3.org/2000/svg" xmlns:xlink="http://www.w3.org/1999/xlink" x="0px" y="0px"
	 viewBox="0 0 92 62.2" style="enable-background:new 0 0 92 62.2;" xml:space="preserve">
<style type="text/css">
	.st0{fill:#F7B118;fill-opacity:0.8;}
	.st1{fill:#2B2B6B;}
</style>
<path class="st0" d="M92,62c0-7.9-1.6-15.8-4.6-23.2c-3-7.3-7.5-14-13.1-19.6C68.7,13.6,62,9.1,54.7,6.1c-7.3-3-15.2-4.6-23.2-4.6
	V62H92z"/>
<path class="st1" d="M64.4,13C42.1,8.6,43.5,8.8,43,8.9c-0.2,0-2.1,0.4-6.8,1.4c-1.9-5.6-7.3-9.6-13.5-9.6c-6.3,0-11.6,4-13.5,9.6
	L2.3,8.9C1.1,8.7,0,9.6,0,10.8v45.4c0,0.9,0.7,1.7,1.6,1.9c22.2,4.4,20.8,4.1,20.9,4.1c0.5,0.1-1,0.3,20.9-4.1l20.4,4
	c1.2,0.2,2.3-0.7,2.3-1.9V14.9C66,14,65.3,13.2,64.4,13z M22.7,4.5c5.8,0,10.4,4.7,10.4,10.4c0,4.9-7.8,17.2-10.4,21.3
	C20,32.1,12.2,19.8,12.2,14.9C12.2,9.2,16.9,4.5,22.7,4.5z M3.9,13.1l4.5,0.9c0,0.3,0,0.6,0,0.9c0,3.2,2.1,8.4,6.4,15.9
	c2.5,4.4,5,8.1,5.9,9.4v17.7L3.9,54.6V13.1z M24.6,40.3c0.9-1.3,3.4-5.1,5.9-9.4c4.3-7.5,6.4-12.7,6.4-15.9c0-0.3,0-0.6,0-0.9
	l4.4-0.9v41.4l-16.8,3.4V40.3z M62.1,57.9l-16.9-3.4V13.1l16.9,3.4V57.9z"/>
<path class="st1" d="M22.7,21c3.3,0,6.1-2.7,6.1-6.1c0-3.3-2.7-6.1-6.1-6.1s-6.1,2.7-6.1,6.1C16.6,18.3,19.3,21,22.7,21z M22.7,12.7
	c1.2,0,2.2,1,2.2,2.2c0,1.2-1,2.2-2.2,2.2s-2.2-1-2.2-2.2C20.5,13.7,21.5,12.7,22.7,12.7z"/>
</svg>
