<svg width="32" height="41" viewBox="0 0 32 41" fill="none" xmlns="http://www.w3.org/2000/svg">
<path d="M28.891 7.87022C29.3294 8.07212 29.8825 7.94899 30.2674 7.56404L31.6449 6.1867C31.9201 5.9115 32.0469 5.53789 31.9843 5.18725C31.93 4.88408 31.7409 4.63741 31.4652 4.51039L30.0124 3.84137L29.3432 2.38859C29.2162 2.11292 28.9695 1.9237 28.6664 1.86958C28.3157 1.80682 27.9421 1.93376 27.6669 2.20896L26.2895 3.58638C25.9046 3.9714 25.7815 4.52465 25.9834 4.96277L26.6352 6.37806L25.7985 7.21475C25.7784 7.19621 25.7588 7.17711 25.7386 7.15865C23.2545 4.8825 20.1218 3.50151 16.796 3.19248V1.43233C16.7961 0.642474 16.1537 0 15.3639 0C14.5741 0 13.9316 0.642474 13.9316 1.43225V3.19319C6.12909 3.91799 0 10.501 0 18.4897C0 22.3419 1.43209 26.0264 4.03257 28.8646C5.68012 30.6627 7.7054 32.024 9.93996 32.8668L8.32545 38.7595C8.11634 39.523 8.5646 40.3101 9.32862 40.5193C10.0948 40.7288 10.8804 40.2739 11.0881 39.5164L12.703 33.6218C13.1056 33.6921 13.5121 33.7475 13.922 33.7857C14.249 33.8162 14.5384 33.5757 14.5688 33.2491C14.5992 32.9223 14.359 32.6327 14.0322 32.6022C6.7554 31.9243 1.18867 25.8956 1.18867 18.4897C1.18867 10.6755 7.5447 4.31918 15.3565 4.31459C15.359 4.31459 15.3614 4.31451 15.3639 4.31451C15.3669 4.31451 15.37 4.31459 15.373 4.31459C18.9494 4.31617 22.3608 5.63393 24.9759 8.03726L23.739 9.27411C21.5251 7.26039 18.5854 6.03131 15.3639 6.03131C8.49431 6.03131 2.90539 11.6201 2.90539 18.4898C2.90539 25.3595 8.49423 30.9482 15.3639 30.9482C22.2336 30.9482 27.8224 25.3594 27.8224 18.4898C27.8224 15.2684 26.5933 12.3286 24.5796 10.1147L25.8167 8.87759C27.8424 11.0824 29.1773 13.947 29.4764 17.1581C29.5069 17.4849 29.7966 17.7252 30.1233 17.6947C30.4501 17.6643 30.6903 17.3747 30.6599 17.0478C30.3459 13.6765 28.9298 10.5279 26.639 8.05517L27.4758 7.2184L28.891 7.87022ZM11.1147 33.2569C11.244 33.294 11.3739 33.3295 11.5043 33.3632C11.5158 33.3662 11.5273 33.3697 11.5389 33.3727L9.94178 39.2023C9.90707 39.3288 9.77284 39.4084 9.64249 39.3728C9.51293 39.3373 9.43639 39.2034 9.47205 39.0736L11.0691 33.2444C11.0842 33.2488 11.0995 33.2525 11.1147 33.2569ZM15.6075 3.12798C15.4464 3.12528 15.2729 3.12544 15.1204 3.12798V1.43225C15.1204 1.29794 15.2297 1.18867 15.364 1.18867C15.4982 1.18867 15.6075 1.29794 15.6075 1.43225V3.12798ZM26.6337 18.4898C26.6337 24.7039 21.5781 29.7596 15.3639 29.7596C9.1497 29.7596 4.09406 24.7039 4.09406 18.4898C4.09406 12.2757 9.1497 7.21998 15.3639 7.21998C18.2576 7.21998 20.8997 8.31666 22.8975 10.1156L21.5801 11.4331C19.9211 9.96999 17.7446 9.08076 15.364 9.08076C10.1758 9.08076 5.955 13.3016 5.955 18.4897C5.955 23.6779 10.1759 27.8987 15.364 27.8987C20.552 27.8987 24.7729 23.6779 24.7729 18.4897C24.7729 16.1091 23.8837 13.9325 22.4206 12.2736L23.7381 10.9561C25.5371 12.9539 26.6337 15.5961 26.6337 18.4898ZM14.9436 18.9101C15.1758 19.1422 15.552 19.1422 15.7842 18.9101L17.2367 17.4576C17.4063 17.7638 17.5031 18.1156 17.5031 18.4899C17.5031 19.6695 16.5435 20.6291 15.3639 20.6291C14.1843 20.6291 13.2247 19.6695 13.2247 18.4899C13.2247 17.3103 14.1843 16.3507 15.3639 16.3507C15.7381 16.3507 16.09 16.4475 16.3962 16.617L14.9436 18.0696C14.7115 18.3017 14.7115 18.678 14.9436 18.9101ZM17.2577 15.7555C16.7198 15.3818 16.0672 15.1619 15.3641 15.1619C13.5291 15.1619 12.0362 16.6548 12.0362 18.4897C12.0362 20.3247 13.5291 21.8176 15.3641 21.8176C17.199 21.8176 18.6919 20.3247 18.6919 18.4897C18.6919 17.7865 18.4721 17.1339 18.0983 16.5961L19.337 15.3574C20.0184 16.2199 20.4268 17.3077 20.4268 18.4897C20.4268 21.2813 18.1557 23.5525 15.3641 23.5525C12.5724 23.5525 10.3013 21.2813 10.3013 18.4897C10.3013 15.6981 12.5724 13.427 15.3641 13.427C16.5461 13.427 17.6339 13.8353 18.4964 14.5168L17.2577 15.7555ZM15.3639 12.2385C11.9169 12.2385 9.11254 15.0428 9.11254 18.4898C9.11254 21.9368 11.9169 24.7413 15.3639 24.7413C18.8109 24.7413 21.6153 21.9369 21.6153 18.4898C21.6153 16.9799 21.0771 15.5933 20.1825 14.5117L21.579 13.1152C22.8278 14.5573 23.5842 16.4369 23.5842 18.4898C23.5842 23.0225 19.8966 26.7101 15.3639 26.7101C10.8312 26.7101 7.14359 23.0225 7.14359 18.4898C7.14359 13.9572 10.8312 10.2695 15.3639 10.2695C17.4168 10.2695 19.2963 11.026 20.7385 12.2747L19.342 13.6711C18.2604 12.7767 16.8739 12.2385 15.3639 12.2385ZM29.692 5.00239L30.6891 5.46158L29.427 6.72363C29.3975 6.7531 29.3692 6.7676 29.3522 6.77394L28.3718 6.32252L29.692 5.00239ZM27.1302 4.42663L28.3923 3.16459L28.8515 4.16174L27.5314 5.48186L27.0799 4.50151C27.0862 4.4844 27.1008 4.45611 27.1302 4.42663Z" fill="#F7B118"/>
<path d="M30.1233 19.2848C29.7976 19.2547 29.507 19.4945 29.4765 19.8214C28.843 26.6223 23.4416 31.9739 16.6957 32.6022C16.3688 32.6326 16.1287 32.9223 16.1591 33.2491C16.1895 33.5758 16.4791 33.8162 16.8059 33.7857C17.2173 33.7474 17.6238 33.6921 18.0249 33.6221L19.6398 39.5163C19.846 40.269 20.6286 40.7303 21.3994 40.5193C22.1631 40.3102 22.6116 39.5231 22.4025 38.7594L20.7885 32.8688C26.1711 30.8412 30.1056 25.8852 30.6601 19.9317C30.6903 19.6048 30.4502 19.3153 30.1233 19.2848ZM21.2559 39.0736C21.2913 39.2026 21.2158 39.3372 21.0855 39.3729C20.9553 39.4088 20.8208 39.3289 20.7861 39.2025L19.1891 33.373C19.3396 33.3345 19.489 33.2933 19.6377 33.2503C19.6448 33.2483 19.6519 33.2465 19.6589 33.2445L21.2559 39.0736Z" fill="#F7B118"/>
</svg>
