<svg width="22" height="22" viewBox="0 0 22 22" fill="none" xmlns="http://www.w3.org/2000/svg">
<path fill-rule="evenodd" clip-rule="evenodd" d="M0 11C0 17.0751 4.92487 22 11 22C17.0751 22 22 17.0751 22 11C22 4.92487 17.0751 0 11 0C4.92487 0 0 4.92487 0 11ZM20 11C20 15.9706 15.9706 20 11 20C6.02944 20 2 15.9706 2 11C2 6.02944 6.02944 2 11 2C15.9706 2 20 6.02944 20 11ZM11.0003 16.9985C11.5528 16.9985 12.0007 16.5508 12.0007 15.9985C12.0007 15.4462 11.5528 14.9985 11.0003 14.9985C10.4479 14.9985 10 15.4462 10 15.9985C10 16.5508 10.4479 16.9985 11.0003 16.9985ZM12.0036 4.99854H10.0029V12.9985H12.0036V4.99854Z" fill="#EB001B"/>
</svg>
